<svg width="24" height="24" viewBox="0 0 24 24" fill="none" xmlns="http://www.w3.org/2000/svg">
<path d="M20.3128 16.9781C20.4082 17.0683 20.5205 17.1388 20.6433 17.1856C20.766 17.2325 20.8967 17.2546 21.028 17.2509C21.1593 17.2472 21.2886 17.2177 21.4085 17.164C21.5284 17.1103 21.6365 17.0335 21.7268 16.9381C21.817 16.8426 21.8875 16.7303 21.9343 16.6076C21.9811 16.4848 22.0033 16.3541 21.9996 16.2228C21.9959 16.0915 21.9663 15.9622 21.9127 15.8423C21.859 15.7224 21.7822 15.6143 21.6868 15.5241L12.6868 7.02408C12.5011 6.84854 12.2553 6.75073 11.9998 6.75073C11.7442 6.75073 11.4984 6.84854 11.3128 7.02408L2.31175 15.5241C2.21419 15.6137 2.13541 15.7218 2.07998 15.8421C2.02456 15.9625 1.9936 16.0926 1.98889 16.225C1.98419 16.3574 2.00584 16.4894 2.05258 16.6134C2.09933 16.7373 2.17024 16.8508 2.26119 16.9471C2.35215 17.0434 2.46133 17.1207 2.58241 17.1744C2.70349 17.2282 2.83404 17.2574 2.96649 17.2603C3.09893 17.2632 3.23063 17.2397 3.35394 17.1912C3.47724 17.1428 3.58969 17.0703 3.68475 16.9781L11.9998 9.12608L20.3128 16.9781Z" fill="#636363"/>
</svg>
