<svg width="32" height="32" viewBox="0 0 32 32" fill="none" xmlns="http://www.w3.org/2000/svg">
<path d="M21.2273 4.91599C21.3176 4.78869 21.3881 4.63895 21.4349 4.47531C21.4817 4.31167 21.5039 4.13734 21.5002 3.96227C21.4965 3.7872 21.4669 3.61482 21.4133 3.45498C21.3596 3.29513 21.2828 3.15094 21.1873 3.03065C21.0919 2.91036 20.9796 2.81632 20.8568 2.7539C20.7341 2.69148 20.6034 2.6619 20.4721 2.66685C20.3408 2.67181 20.2115 2.71119 20.0916 2.78276C19.9717 2.85434 19.8636 2.95669 19.7733 3.08399L11.2733 15.084C11.0978 15.3315 11 15.6593 11 16C11 16.3407 11.0978 16.6684 11.2733 16.916L19.7733 28.9173C19.863 29.0474 19.9711 29.1524 20.0914 29.2263C20.2117 29.3002 20.3419 29.3415 20.4743 29.3478C20.6067 29.3541 20.7387 29.3252 20.8626 29.2629C20.9866 29.2005 21.1 29.106 21.1963 28.9847C21.2927 28.8635 21.3699 28.7179 21.4237 28.5564C21.4775 28.395 21.5067 28.2209 21.5095 28.0443C21.5124 27.8677 21.489 27.6921 21.4405 27.5277C21.3921 27.3633 21.3196 27.2134 21.2273 27.0867L13.3753 16L21.2273 4.91599Z" fill="white"/>
</svg>
