<svg width="24" height="24" viewBox="0 0 24 24" fill="none" xmlns="http://www.w3.org/2000/svg">
<path d="M7.77266 20.3242C7.68244 20.4197 7.61191 20.532 7.56509 20.6547C7.51828 20.7775 7.49609 20.9082 7.49981 21.0395C7.50352 21.1708 7.53306 21.3001 7.58674 21.42C7.64042 21.5399 7.71719 21.648 7.81266 21.7382C7.90813 21.8284 8.02044 21.899 8.14316 21.9458C8.26589 21.9926 8.39664 22.0148 8.52794 22.0111C8.65924 22.0074 8.78853 21.9778 8.90841 21.9241C9.0283 21.8705 9.13644 21.7937 9.22666 21.6982L17.7267 12.6982C17.9022 12.5126 18 12.2667 18 12.0112C18 11.7557 17.9022 11.5099 17.7267 11.3242L9.22666 2.32323C9.13704 2.22566 9.02892 2.14688 8.90859 2.09146C8.78827 2.03603 8.65813 2.00507 8.52573 2.00037C8.39334 1.99566 8.26133 2.01731 8.13737 2.06406C8.01341 2.1108 7.89998 2.18171 7.80366 2.27267C7.70734 2.36362 7.63005 2.47281 7.57629 2.59389C7.52252 2.71496 7.49335 2.84552 7.49046 2.97796C7.48758 3.11041 7.51104 3.24211 7.55948 3.36541C7.60793 3.48871 7.68039 3.60116 7.77266 3.69622L15.6247 12.0112L7.77266 20.3242Z" fill="#636363"/>
</svg>
