<svg width="24" height="24" viewBox="0 0 24 24" fill="none" xmlns="http://www.w3.org/2000/svg">
<path d="M17.2273 3.687C17.3176 3.59153 17.3881 3.47923 17.4349 3.3565C17.4817 3.23377 17.5039 3.10302 17.5002 2.97172C17.4965 2.84042 17.4669 2.71113 17.4133 2.59125C17.3596 2.47136 17.2828 2.36322 17.1873 2.273C17.0919 2.18279 16.9796 2.11226 16.8568 2.06544C16.7341 2.01863 16.6034 1.99644 16.4721 2.00016C16.3408 2.00387 16.2115 2.03341 16.0916 2.08709C15.9717 2.14077 15.8636 2.21753 15.7733 2.313L7.27334 11.313C7.09781 11.4987 7 11.7445 7 12C7 12.2555 7.09781 12.5013 7.27334 12.687L15.7733 21.688C15.863 21.7856 15.9711 21.8643 16.0914 21.9198C16.2117 21.9752 16.3419 22.0062 16.4743 22.0109C16.6067 22.0156 16.7387 21.9939 16.8626 21.9472C16.9866 21.9004 17.1 21.8295 17.1963 21.7386C17.2927 21.6476 17.3699 21.5384 17.4237 21.4173C17.4775 21.2963 17.5067 21.1657 17.5095 21.0333C17.5124 20.9008 17.489 20.7691 17.4405 20.6458C17.3921 20.5225 17.3196 20.4101 17.2273 20.315L9.37534 12L17.2273 3.687Z" fill="#636363"/>
</svg>
