<svg width="24" height="24" viewBox="0 0 24 24" fill="none" xmlns="http://www.w3.org/2000/svg">
<path d="M3.68725 7.03316C3.59178 6.94294 3.47947 6.87241 3.35674 6.82559C3.23401 6.77878 3.10327 6.75659 2.97196 6.76031C2.84066 6.76402 2.71138 6.79356 2.59149 6.84724C2.47161 6.90092 2.36347 6.97768 2.27325 7.07316C2.18303 7.16863 2.1125 7.28093 2.06569 7.40366C2.01887 7.52639 1.99669 7.65714 2.0004 7.78844C2.00411 7.91974 2.03365 8.04903 2.08733 8.16891C2.14101 8.2888 2.21778 8.39694 2.31325 8.48716L11.3132 16.9872C11.4989 17.1627 11.7447 17.2605 12.0002 17.2605C12.2558 17.2605 12.5016 17.1627 12.6872 16.9872L21.6882 8.48716C21.7858 8.39753 21.8646 8.28942 21.92 8.16909C21.9754 8.04876 22.0064 7.91862 22.0111 7.78623C22.0158 7.65384 21.9942 7.52183 21.9474 7.39787C21.9007 7.27391 21.8298 7.16048 21.7388 7.06416C21.6479 6.96784 21.5387 6.89055 21.4176 6.83678C21.2965 6.78302 21.166 6.75385 21.0335 6.75096C20.9011 6.74808 20.7694 6.77154 20.6461 6.81998C20.5228 6.86842 20.4103 6.94089 20.3153 7.03316L12.0002 14.8852L3.68725 7.03316Z" fill="#636363"/>
</svg>
