<svg width="393" height="802" viewBox="0 0 393 802" fill="none" xmlns="http://www.w3.org/2000/svg">
<path d="M158.059 239.399C148.493 214.546 101.165 202.273 108.975 251.758C110.256 259.872 110.385 273.844 108.975 290.85C107.684 306.429 82.4092 314.953 74.6506 335.082C62.4829 366.651 107.977 388.655 100.737 405.25C91.255 426.985 62.2208 436.416 46.1612 448.307C31.0428 459.502 21.4128 477.464 17.7152 495.931C11.2283 528.329 23.0005 562.281 55.4288 563.97C71.6623 564.816 93.0721 557.576 119.959 538.01C131.98 529.262 142.58 522.052 152.001 516.223C176.249 501.219 169.73 536.71 198.562 538.01C214.991 538.751 232.15 508.112 245.139 524.455C254.375 536.076 264.974 550.176 280.111 564.673C306.693 590.131 339.927 593.879 344.628 557.545C346.847 540.394 342.708 514.31 328.508 477.362C319.422 453.717 342.024 454.551 344.628 424.251C347.232 393.951 325.937 379.978 341.353 367.438L341.661 367.187C353.411 357.629 365.943 347.436 372.787 327.857C378.682 310.992 378.119 294.289 372.787 281.454C367.081 267.717 355.912 258.412 341.353 258.082C326.744 257.75 308.722 266.455 289.378 288.787C276.625 303.51 267.988 269.251 245.139 272.753C222.291 276.255 219.115 309.311 205.427 299.723C181.651 283.069 169.263 268.507 158.059 239.399Z" stroke="#606060" stroke-opacity="0.3" stroke-width="1.19883"/>
<path d="M204.211 374.97C202.755 371.154 195.97 372.156 195.627 376.291C195.236 380.999 197.619 387.134 197.343 391.853C196.811 400.965 193.588 403.559 187.169 408.362C184.868 410.08 183.402 412.838 182.84 415.673C181.852 420.646 183.644 425.858 188.579 426.118C191.05 426.248 194.308 425.136 198.4 422.132C200.229 420.789 201.842 419.683 203.276 418.788C209.517 414.58 215.326 417.877 217.45 420.052C218.856 421.836 220.469 424 222.772 426.226C226.818 430.134 232.944 429.622 232.591 425.131C232.093 418.788 221.246 395.109 232.591 390.98C237.861 389.062 237.688 384.717 236.876 382.747C236.008 380.638 234.308 379.209 232.093 379.159C229.869 379.108 226.186 382.747 224.183 383.873C216.786 388.028 210.187 390.177 204.211 374.97Z" stroke="#606060" stroke-opacity="0.3" stroke-width="1.19883"/>
<path d="M116.888 262.585C109.957 217.536 153.207 228.766 161.977 251.55C172.715 279.405 184.586 292.46 206.893 307.237C219.438 315.909 222.457 285.727 243.378 282.447C264.299 279.166 272.292 310.255 283.997 296.861C301.799 276.549 318.352 268.758 331.722 269.249C345.007 269.639 355.191 278.247 360.336 290.887C365.141 302.706 365.538 318.045 359.934 333.475C352.621 351.817 342.059 363.233 331.333 372.568C317.322 384.18 336.567 397.006 334.016 424.591C331.466 452.177 310.669 451.342 318.753 472.678C331.463 506.093 335.083 529.629 332.936 545.073C328.562 578.032 298.142 574.498 273.729 551.285C259.729 538.044 249.812 525.236 241.124 514.853C229.175 500.064 213.416 528.04 198.301 527.487C171.881 526.439 177.646 494.242 155.435 507.951C146.714 513.312 136.939 519.893 125.889 527.847C100.976 545.625 81.333 551.741 66.6524 550.523C37.1722 548.859 26.5071 517.842 32.4753 488.252C35.9055 471.337 44.7532 454.894 58.6137 444.631C73.8098 433.379 100.521 424.565 109.197 403.967C115.796 388.656 74.3545 368.392 85.379 339.425C92.3917 320.866 115.343 312.866 116.536 298.48C117.834 282.821 117.879 269.993 116.888 262.585Z" stroke="#606060" stroke-opacity="0.3" stroke-width="1.19883"/>
<path d="M125.157 273.868C119.114 233.403 158.223 243.553 166.184 264.193C176.44 290.701 187.778 302.206 208.582 315.059C219.967 322.787 222.824 295.578 241.787 292.53C260.751 289.482 268.088 317.298 278.728 305.279C294.962 287.051 310.02 280.199 322.134 280.849C334.124 281.296 343.309 289.18 347.886 300.68C352.156 311.445 352.385 325.368 347.082 339.314C339.369 356.186 330.953 368.777 321.355 377.784C308.771 388.429 325.937 400.066 323.443 424.846C320.949 449.627 301.989 448.793 309.058 467.751C320.26 497.524 323.355 518.436 321.283 532.122C317.243 561.598 289.682 558.291 267.473 537.398C254.631 525.457 245.409 513.983 237.282 504.871C226.391 491.685 212.055 516.906 198.276 516.543C174.307 515.751 179.308 486.952 159.167 499.32C151.159 504.196 142.223 510.128 132.16 517.26C109.258 533.192 91.4105 538.166 78.3042 536.581C51.8153 534.946 42.273 506.967 47.7137 480.283C50.8715 464.975 58.924 450.105 71.5064 440.808C85.817 430.233 110.165 422.064 118.022 402.674C123.973 388.697 86.6435 370.239 96.5086 343.97C102.765 327.043 123.36 319.594 124.452 306.448C125.637 292.187 125.856 280.546 125.157 273.868Z" stroke="#606060" stroke-opacity="0.3" stroke-width="1.19883"/>
<path d="M133.068 284.695C127.905 248.667 162.932 257.773 170.098 276.344C179.888 301.599 190.71 311.597 210.044 322.573C220.285 329.386 222.986 305.05 240.02 302.224C257.055 299.397 263.748 324.043 273.338 313.354C288.03 297.145 301.618 291.207 312.493 292.017C323.207 292.523 331.407 299.71 335.422 310.114C339.165 319.863 339.227 332.421 334.215 344.932C326.09 360.395 319.809 374.203 311.323 382.913C300.146 392.63 315.259 403.119 312.819 425.185C310.378 447.251 293.225 446.416 299.29 463.065C309.001 489.306 311.575 507.67 309.575 519.648C305.862 545.75 281.119 542.657 261.079 524.008C249.375 513.323 240.834 503.141 233.256 495.267C223.406 483.636 210.47 506.194 198.006 506.018C176.451 505.479 180.697 479.974 162.593 491.046C155.286 495.454 147.176 500.757 138.085 507.095C117.158 521.24 101.078 525.09 89.5255 523.132C65.9872 521.522 57.5529 496.479 62.4745 472.603C65.3649 458.847 72.6347 445.496 83.9584 437.131C97.4057 427.195 119.429 419.643 126.48 401.391C131.789 388.698 98.5156 371.979 107.236 348.313C112.747 332.957 131.016 326.032 132.01 314.078C133.083 301.165 133.476 290.668 133.068 284.695Z" stroke="#606060" stroke-opacity="0.3" stroke-width="1.19883"/>
<path d="M141.332 295.522C137.058 263.932 167.942 271.994 174.298 288.495C183.606 312.499 193.894 320.989 211.723 330.087C220.803 335.984 223.342 314.523 238.418 311.918C253.493 309.314 259.53 330.788 268.054 321.429C281.177 307.239 293.271 302.215 302.888 303.187C312.306 303.752 319.507 310.242 322.954 319.548C326.162 328.282 326.057 339.474 321.345 350.55C312.823 364.605 308.686 379.633 301.329 388.048C291.578 396.837 304.612 406.178 302.229 425.529C299.846 444.88 284.53 444.043 289.58 458.383C297.783 481.089 299.832 496.904 297.908 507.174C294.529 529.9 272.646 527.022 254.812 510.618C244.265 501.189 236.421 492.3 229.405 485.664C220.613 475.588 209.1 495.482 197.974 495.495C178.872 495.209 182.354 472.998 166.32 482.775C159.727 486.714 152.457 491.389 144.353 496.932C125.438 509.288 111.154 512.014 101.177 509.683C80.6313 508.097 73.32 485.991 77.7139 464.923C80.3317 452.72 86.8059 440.888 96.8507 433.455C109.411 424.158 129.071 417.222 135.302 400.107C139.962 388.697 110.802 373.719 118.364 352.655C123.117 338.87 139.029 332.469 139.923 321.708C140.883 310.142 141.449 300.789 141.332 295.522Z" stroke="#606060" stroke-opacity="0.3" stroke-width="1.19883"/>
<path d="M149.593 306.859C146.207 279.777 172.948 286.778 178.494 301.172C187.317 323.87 197.069 330.834 213.392 338.034C221.31 343.002 223.688 324.463 236.804 322.085C249.92 319.708 255.3 337.963 262.758 329.955C274.311 317.816 284.91 313.718 293.269 314.848C301.392 315.471 307.593 321.25 310.471 329.438C313.145 337.136 312.873 346.938 308.462 356.555C299.545 369.17 297.551 385.383 291.323 393.484C282.998 401.324 293.953 409.497 291.628 426.09C289.303 442.682 275.824 441.846 279.86 453.844C286.556 472.965 288.08 486.196 286.232 494.735C283.186 514.034 264.165 511.376 248.537 497.255C239.149 489.103 232.002 481.526 225.549 476.144C217.815 467.646 207.727 484.831 197.939 485.032C181.289 485 184.009 466.133 170.045 474.592C164.166 478.054 157.736 482.091 150.621 486.826C133.72 497.365 121.232 498.962 112.83 496.263C95.2764 494.705 89.0881 475.584 92.954 457.373C95.299 446.749 100.977 436.463 109.743 429.979C121.415 421.341 138.709 415.037 144.121 399.098C148.131 388.998 123.087 375.793 129.488 357.379C133.486 345.195 147.04 339.332 147.833 329.788C148.679 319.596 149.419 311.408 149.593 306.859Z" stroke="#606060" stroke-opacity="0.3" stroke-width="1.19883"/>
<path d="M157.496 317.686C154.992 295.044 177.644 301.001 182.393 313.325C190.75 334.774 199.986 340.229 214.837 345.548C221.61 349.6 223.83 333.937 235.014 331.781C246.198 329.625 250.932 344.706 257.34 338.03C267.348 327.911 276.473 324.728 283.592 326.019C290.436 326.702 295.65 331.784 297.966 338.875C300.111 345.557 299.671 353.993 295.552 362.175C286.221 373.381 286.366 390.82 281.253 398.626C274.338 405.538 283.237 412.563 280.964 426.439C278.692 440.315 267.024 439.477 270.053 449.163C275.255 464.748 276.258 475.429 274.482 482.257C271.764 498.178 255.564 495.736 242.11 483.86C233.862 476.965 227.397 470.681 221.493 466.539C214.802 459.597 206.117 474.117 197.646 474.507C183.414 474.728 185.377 459.158 173.455 466.32C168.278 469.313 162.675 472.722 156.533 476.662C141.61 485.412 130.893 485.882 124.048 482.809C109.451 481.275 104.372 465.092 107.718 449.691C109.796 440.62 114.69 431.853 122.194 426.302C133.002 418.302 147.968 412.615 152.571 397.812C155.94 388.995 134.958 377.53 140.213 361.72C143.463 351.107 154.688 345.768 155.382 337.417C156.117 328.572 157.03 321.529 157.496 317.686Z" stroke="#606060" stroke-opacity="0.3" stroke-width="1.19883"/>
<path d="M165.747 328.512C164.131 310.314 182.635 315.226 186.573 325.479C194.442 345.683 203.137 349.627 216.476 353.064C222.085 356.198 224.143 343.412 233.365 341.478C242.587 339.543 246.663 351.448 252.003 346.104C260.439 338.007 268.067 335.741 273.927 337.194C279.474 337.936 283.688 342.321 285.435 348.315C287.045 353.981 286.44 361.051 282.624 367.796C272.905 377.594 275.187 396.268 271.203 403.782C265.714 409.765 272.534 415.642 270.321 426.799C268.108 437.956 258.28 437.116 260.296 444.489C263.991 456.533 264.47 464.661 262.77 469.778C260.387 482.317 247.052 480.089 235.807 470.461C228.72 464.823 222.955 459.834 217.616 456.933C211.986 451.549 204.726 463.402 197.595 463.981C185.819 464.456 187.02 452.186 177.171 458.051C172.71 460.576 167.948 463.355 162.796 466.499C149.891 473.458 140.974 472.8 135.703 469.35C124.101 467.839 120.146 454.596 122.963 442.007C124.767 434.489 128.864 427.244 135.088 422.626C145.002 415.262 157.599 410.191 161.383 396.521C164.1 388.989 147.237 379.265 151.332 366.059C153.825 357.018 162.691 352.202 163.284 345.043C163.905 337.546 164.991 331.649 165.747 328.512Z" stroke="#606060" stroke-opacity="0.3" stroke-width="1.19883"/>
<path d="M173.767 339.337C173.031 325.589 187.486 329.455 190.636 337.635C198.062 356.601 206.267 359.031 218.17 360.58C222.647 362.796 224.553 352.891 231.864 351.177C239.174 349.463 242.615 358.187 246.917 354.177C253.827 348.105 259.999 346.757 264.631 348.373C268.912 349.176 272.148 352.864 273.335 357.76C274.419 362.409 273.643 368.111 270.108 373.419C259.941 381.81 264.381 401.733 261.505 408.957C257.414 414.013 262.19 418.74 260.023 427.175C257.856 435.609 249.815 434.767 250.826 439.822C253.032 448.32 252.988 453.89 251.355 457.291C249.294 466.445 238.751 464.43 229.654 457.052C223.689 452.674 218.59 448.981 213.786 447.324C209.185 443.5 203.312 452.683 197.481 453.452C188.097 454.183 188.541 445.218 180.712 449.784L180.497 449.901C176.791 451.922 172.915 454.034 168.804 456.336C157.845 461.501 150.679 459.711 146.956 455.881C138.286 454.393 135.434 444.093 137.738 434.319C139.279 428.356 142.601 422.632 147.578 418.948C156.656 412.22 166.954 407.763 169.938 395.224C172.019 388.977 159.184 380.994 162.14 370.395C163.89 362.925 170.444 358.632 170.94 352.667C171.451 346.518 172.715 341.767 173.767 339.337Z" stroke="#606060" stroke-opacity="0.3" stroke-width="1.19883"/>
<path d="M181.998 350.688C182.149 341.449 192.444 344.253 194.779 350.324C201.707 367.966 209.361 368.871 219.738 368.526C223.047 369.813 224.788 362.833 230.13 361.348C235.472 359.863 238.251 365.367 241.481 362.709C246.812 358.688 251.481 358.264 254.849 360.037C257.83 360.897 260.062 363.871 260.68 367.647C261.229 371.258 260.289 375.568 257.061 379.415C246.522 386.36 253.088 407.441 251.343 414.344C248.683 418.448 251.375 422.005 249.271 427.681C247.166 433.356 240.974 432.515 240.972 435.23C241.67 440.145 241.103 443.132 239.549 444.804C237.825 450.531 230.157 448.739 223.278 443.645C218.481 440.544 214.088 438.164 209.854 437.758C206.318 435.512 201.877 441.984 197.392 442.94C190.473 443.923 190.155 438.301 184.407 441.548C181.356 443.126 178.256 444.637 175.058 446.175C166.129 449.524 160.769 446.61 158.624 442.418C152.955 440.959 151.229 433.648 153.002 426.732C154.267 422.35 156.789 418.174 160.48 415.44C168.654 409.377 176.573 405.556 178.733 394.204C180.163 389.269 171.456 383.063 173.25 375.117C174.242 369.253 178.432 365.502 178.827 360.756C179.224 355.984 180.659 352.399 181.998 350.688Z" stroke="#606060" stroke-opacity="0.3" stroke-width="1.19883"/>
<path d="M190.35 361.528C191.385 356.767 197.551 358.517 199.08 362.497C205.521 378.855 212.635 378.242 221.506 376.009C223.658 376.373 225.237 372.294 228.626 371.034C232.016 369.774 234.14 372.08 236.306 370.764C240.073 368.78 243.252 369.276 245.367 371.208C247.057 372.126 248.294 374.396 248.346 377.062C248.363 379.647 247.258 382.577 244.331 384.975C233.408 390.493 242.1 412.772 241.477 419.367C240.238 422.532 240.861 424.93 238.816 427.865C236.771 430.801 232.411 429.96 231.4 430.348C230.599 431.7 229.511 432.12 228.034 432.07C226.643 434.393 221.826 432.819 217.146 429.991C213.505 428.159 209.808 427.082 206.138 427.923C203.657 427.244 200.635 431.027 197.484 432.171C193.009 433.407 191.933 431.108 188.248 433.046C185.909 434.151 183.647 435.027 181.435 435.764C174.515 437.309 170.945 433.268 170.368 428.706C167.679 427.275 167.07 422.927 168.317 418.847C169.31 416.033 171.038 413.391 173.455 411.598C180.739 406.187 186.3 402.991 187.644 392.799C188.426 389.162 183.818 384.715 184.457 379.4C184.696 375.124 186.539 371.905 186.834 368.366C187.117 364.955 188.723 362.527 190.35 361.528Z" stroke="#606060" stroke-opacity="0.3" stroke-width="1.19883"/>
</svg>
