<svg width="37" height="36" viewBox="0 0 37 36" fill="none" xmlns="http://www.w3.org/2000/svg">
<rect x="0.5" width="36" height="36" rx="18" fill="#262626"/>
<rect x="3.5" y="3" width="30" height="30" rx="15" fill="#343437"/>
<path d="M13.22 11.5L11.984 12.304L11.9 13.924H11.66L11.588 12.256L12.788 11.188C13.348 10.7 13.628 10.096 13.628 9.376C13.628 8.872 13.496 8.472 13.232 8.176C12.968 7.872 12.616 7.72 12.176 7.72C11.88 7.72 11.564 7.788 11.228 7.924C10.9 8.06 10.608 8.256 10.352 8.512H10.28L10.22 7.864C10.5 7.728 10.812 7.624 11.156 7.552C11.508 7.472 11.848 7.432 12.176 7.432C12.88 7.432 13.444 7.604 13.868 7.948C14.3 8.292 14.516 8.748 14.516 9.316C14.516 9.724 14.4 10.124 14.168 10.516C13.936 10.908 13.62 11.236 13.22 11.5ZM11.156 15.496C11.156 15.312 11.216 15.164 11.336 15.052C11.456 14.932 11.604 14.872 11.78 14.872C11.964 14.872 12.112 14.932 12.224 15.052C12.344 15.164 12.404 15.312 12.404 15.496C12.404 15.672 12.344 15.82 12.224 15.94C12.112 16.06 11.964 16.12 11.78 16.12C11.604 16.12 11.456 16.06 11.336 15.94C11.216 15.82 11.156 15.672 11.156 15.496Z" fill="#929292"/>
<rect x="3.5" y="3" width="30" height="30" rx="15" fill="#343437"/>
<path d="M19.7 17.5L17.64 18.84L17.5 21.54H17.1L16.98 18.76L18.98 16.98C19.9133 16.1667 20.38 15.16 20.38 13.96C20.38 13.12 20.16 12.4533 19.72 11.96C19.28 11.4533 18.6933 11.2 17.96 11.2C17.4667 11.2 16.94 11.3133 16.38 11.54C15.8333 11.7667 15.3467 12.0933 14.92 12.52H14.8L14.7 11.44C15.1667 11.2133 15.6867 11.04 16.26 10.92C16.8467 10.7867 17.4133 10.72 17.96 10.72C19.1333 10.72 20.0733 11.0067 20.78 11.58C21.5 12.1533 21.86 12.9133 21.86 13.86C21.86 14.54 21.6667 15.2067 21.28 15.86C20.8933 16.5133 20.3667 17.06 19.7 17.5ZM16.26 24.16C16.26 23.8533 16.36 23.6067 16.56 23.42C16.76 23.22 17.0067 23.12 17.3 23.12C17.6067 23.12 17.8533 23.22 18.04 23.42C18.24 23.6067 18.34 23.8533 18.34 24.16C18.34 24.4533 18.24 24.7 18.04 24.9C17.8533 25.1 17.6067 25.2 17.3 25.2C17.0067 25.2 16.76 25.1 16.56 24.9C16.36 24.7 16.26 24.4533 16.26 24.16Z" fill="#929292"/>
</svg>
