<svg width="363" height="368" viewBox="0 0 363 368" fill="none" xmlns="http://www.w3.org/2000/svg">
<path d="M143.059 22.3993C133.493 -2.45422 86.1651 -14.7274 93.9752 34.7582C95.2558 42.8722 95.3846 56.8437 93.9752 73.85C92.6841 89.4286 67.4092 97.9529 59.6506 118.082C47.4829 149.651 92.977 171.655 85.7373 188.25C76.255 209.985 47.2208 219.416 31.1612 231.307C16.0428 242.502 6.4128 260.464 2.71525 278.931C-3.77165 311.329 8.00047 345.281 40.4288 346.97C56.6623 347.816 78.0721 340.576 104.959 321.01C116.98 312.262 127.58 305.052 137.001 299.223C161.249 284.219 154.73 319.71 183.562 321.01C199.991 321.751 217.15 291.112 230.139 307.455C239.375 319.076 249.974 333.176 265.111 347.673C291.693 373.131 324.927 376.879 329.628 340.545C331.847 323.394 327.708 297.31 313.508 260.362C304.422 236.717 327.024 237.551 329.628 207.251C332.232 176.951 310.937 162.978 326.353 150.438L326.661 150.187C338.411 140.629 350.943 130.436 357.787 110.857C363.682 93.9922 363.119 77.2886 357.787 64.4535C352.081 50.7171 340.912 41.4118 326.353 41.0817C311.744 40.7505 293.722 49.4553 274.378 71.7866C261.625 86.51 252.988 52.2509 230.139 55.753C207.291 59.2551 204.115 92.3109 190.427 82.7234C166.651 66.0692 154.263 51.5072 143.059 22.3993Z" stroke="#606060" stroke-opacity="0.3" stroke-width="1.19883"/>
<path d="M189.211 157.97C187.755 154.154 180.97 155.156 180.627 159.291C180.236 163.999 182.619 170.134 182.343 174.853C181.811 183.965 178.588 186.559 172.169 191.362C169.868 193.08 168.402 195.838 167.84 198.673C166.852 203.646 168.644 208.858 173.579 209.118C176.05 209.248 179.308 208.136 183.4 205.132C185.229 203.789 186.842 202.683 188.276 201.788C194.517 197.58 200.326 200.877 202.45 203.052C203.856 204.836 205.469 207 207.772 209.226C211.818 213.134 217.944 212.622 217.591 208.131C217.093 201.788 206.246 178.109 217.591 173.98C222.861 172.062 222.688 167.717 221.876 165.747C221.008 163.638 219.308 162.209 217.093 162.159C214.869 162.108 211.186 165.747 209.183 166.873C201.786 171.028 195.187 173.177 189.211 157.97Z" stroke="#606060" stroke-opacity="0.3" stroke-width="1.19883"/>
<path d="M101.888 45.585C94.9569 0.535882 138.207 11.7657 146.977 34.55C157.715 62.4051 169.586 75.46 191.893 90.2373C204.438 98.9094 207.457 68.7271 228.378 65.4467C249.299 62.1662 257.292 93.2548 268.997 79.8615C286.799 59.5486 303.352 51.7577 316.722 52.2493C330.007 52.6385 340.191 61.2472 345.336 73.8867C350.141 85.7061 350.538 101.045 344.934 116.475C337.621 134.817 327.059 146.233 316.333 155.568C302.322 167.18 321.567 180.006 319.016 207.591C316.466 235.177 295.669 234.342 303.753 255.678C316.463 289.093 320.083 312.629 317.936 328.073C313.562 361.032 283.142 357.498 258.729 334.285C244.729 321.044 234.812 308.236 226.124 297.853C214.175 283.064 198.416 311.04 183.301 310.487C156.881 309.439 162.646 277.242 140.435 290.951C131.714 296.312 121.939 302.893 110.889 310.847C85.9763 328.625 66.333 334.741 51.6524 333.523C22.1722 331.859 11.5071 300.842 17.4753 271.252C20.9055 254.337 29.7532 237.894 43.6137 227.631C58.8098 216.379 85.5206 207.565 94.1966 186.967C100.796 171.656 59.3545 151.392 70.379 122.425C77.3917 103.866 100.343 95.8662 101.536 81.48C102.834 65.8208 102.879 52.9934 101.888 45.585Z" stroke="#606060" stroke-opacity="0.3" stroke-width="1.19883"/>
<path d="M110.157 56.8678C104.114 16.403 143.223 26.5525 151.184 47.1926C161.44 73.7007 172.778 85.2061 193.582 98.0589C204.967 105.787 207.824 78.5777 226.787 75.5298C245.751 72.4818 253.088 100.298 263.728 88.2789C279.962 70.051 295.02 63.1993 307.134 63.8494C319.124 64.2962 328.309 72.1797 332.886 83.6805C337.156 94.4453 337.385 108.368 332.082 122.314C324.369 139.186 315.953 151.777 306.355 160.784C293.771 171.429 310.937 183.066 308.443 207.846C305.949 232.627 286.989 231.793 294.058 250.751C305.26 280.524 308.355 301.436 306.283 315.122C302.243 344.598 274.682 341.291 252.473 320.398C239.631 308.457 230.409 296.983 222.282 287.871C211.391 274.685 197.055 299.906 183.276 299.543C159.307 298.751 164.308 269.952 144.167 282.32C136.159 287.196 127.223 293.128 117.16 300.26C94.2584 316.192 76.4105 321.166 63.3042 319.581C36.8153 317.946 27.273 289.967 32.7137 263.283C35.8715 247.975 43.924 233.105 56.5064 223.808C70.817 213.233 95.1652 205.064 103.022 185.674C108.973 171.697 71.6435 153.239 81.5086 126.97C87.7652 110.043 108.36 102.594 109.452 89.4478C110.637 75.1874 110.856 63.5464 110.157 56.8678Z" stroke="#606060" stroke-opacity="0.3" stroke-width="1.19883"/>
<path d="M118.068 67.6952C112.905 31.6669 147.932 40.7731 155.098 59.3439C164.888 84.5985 175.71 94.5969 195.044 105.573C205.285 112.386 207.986 88.05 225.02 85.2237C242.055 82.3974 248.748 107.043 258.338 96.3541C273.03 80.1447 286.618 74.2069 297.493 75.0173C308.207 75.5232 316.407 82.7099 320.422 93.1137C324.165 102.863 324.227 115.421 319.215 127.932C311.09 143.395 304.809 157.203 296.323 165.913C285.146 175.63 300.259 186.119 297.819 208.185C295.378 230.251 278.225 229.416 284.29 246.065C294.001 272.306 296.575 290.67 294.575 302.648C290.862 328.75 266.119 325.657 246.079 307.008C234.375 296.323 225.834 286.141 218.256 278.267C208.406 266.636 195.47 289.194 183.006 289.018C161.451 288.479 165.697 262.974 147.593 274.046C140.286 278.454 132.176 283.757 123.085 290.095C102.158 304.24 86.0776 308.09 74.5255 306.132C50.9872 304.522 42.5529 279.479 47.4745 255.603C50.3649 241.847 57.6347 228.496 68.9584 220.131C82.4057 210.195 104.429 202.643 111.48 184.391C116.789 171.698 83.5156 154.979 92.2365 131.313C97.7465 115.957 116.016 109.032 117.01 97.0782C118.083 84.165 118.476 73.6682 118.068 67.6952Z" stroke="#606060" stroke-opacity="0.3" stroke-width="1.19883"/>
<path d="M126.332 78.5221C122.058 46.9318 152.942 54.9943 159.298 71.4955C168.606 95.4989 178.894 103.989 196.723 113.087C205.803 118.984 208.342 97.523 223.418 94.9183C238.493 92.3136 244.53 113.788 253.054 104.429C266.177 90.2388 278.271 85.2154 287.888 86.1865C297.306 86.7518 304.507 93.2417 307.954 102.548C311.162 111.282 311.057 122.474 306.345 133.55C297.823 147.605 293.686 162.633 286.329 171.048C276.578 179.837 289.612 189.178 287.229 208.529C284.846 227.88 269.53 227.043 274.58 241.383C282.783 264.089 284.832 279.904 282.908 290.174C279.529 312.9 257.646 310.022 239.812 293.618C229.265 284.189 221.421 275.3 214.405 268.664C205.613 258.588 194.1 278.482 182.974 278.495C163.872 278.209 167.354 255.998 151.32 265.775C144.727 269.714 137.457 274.389 129.353 279.932C110.438 292.288 96.1544 295.014 86.1771 292.683C65.6313 291.097 58.32 268.991 62.7139 247.923C65.3317 235.72 71.8059 223.888 81.8507 216.455C94.4111 207.158 114.071 200.222 120.302 183.107C124.962 171.697 95.8024 156.719 103.364 135.655C108.117 121.87 124.029 115.469 124.923 104.708C125.883 93.1419 126.449 83.7893 126.332 78.5221Z" stroke="#606060" stroke-opacity="0.3" stroke-width="1.19883"/>
<path d="M134.593 89.8586C131.207 62.7768 157.948 69.7778 163.494 84.1723C172.317 106.87 182.069 113.834 198.392 121.034C206.31 126.002 208.688 107.463 221.804 105.085C234.92 102.708 240.3 120.963 247.758 112.955C259.311 100.816 269.91 96.7182 278.269 97.8478C286.392 98.471 292.593 104.25 295.471 112.438C298.145 120.136 297.873 129.938 293.462 139.555C284.545 152.17 282.551 168.383 276.323 176.484C267.998 184.324 278.953 192.497 276.628 209.09C274.303 225.682 260.824 224.846 264.86 236.844C271.556 255.965 273.08 269.196 271.232 277.735C268.186 297.034 249.165 294.376 233.537 280.255C224.149 272.103 217.002 264.526 210.549 259.144C202.815 250.646 192.727 267.831 182.939 268.032C166.289 268 169.009 249.133 155.045 257.592C149.166 261.054 142.736 265.091 135.621 269.826C118.72 280.365 106.232 281.962 97.8297 279.263C80.2764 277.705 74.0881 258.584 77.954 240.373C80.299 229.749 85.9773 219.463 94.7429 212.979C106.415 204.341 123.709 198.037 129.121 182.098C133.131 171.998 108.087 158.793 114.488 140.379C118.486 128.195 132.04 122.332 132.833 112.788C133.679 102.596 134.419 94.4084 134.593 89.8586Z" stroke="#606060" stroke-opacity="0.3" stroke-width="1.19883"/>
<path d="M142.496 100.686C139.992 78.0441 162.644 84.001 167.393 96.3251C175.75 117.774 184.986 123.229 199.837 128.548C206.61 132.6 208.83 116.937 220.014 114.781C231.198 112.625 235.932 127.706 242.34 121.03C252.348 110.911 261.473 107.728 268.592 109.019C275.436 109.702 280.65 114.784 282.966 121.875C285.111 128.557 284.671 136.993 280.552 145.175C271.221 156.381 271.366 173.82 266.253 181.626C259.338 188.538 268.237 195.563 265.964 209.439C263.692 223.315 252.024 222.477 255.053 232.163C260.255 247.748 261.258 258.429 259.482 265.257C256.764 281.178 240.564 278.736 227.11 266.86C218.862 259.965 212.397 253.681 206.493 249.539C199.802 242.597 191.117 257.117 182.646 257.507C168.414 257.728 170.377 242.158 158.455 249.32C153.278 252.313 147.675 255.722 141.533 259.662C126.61 268.412 115.893 268.882 109.048 265.809C94.4506 264.275 89.3724 248.092 92.7184 232.691C94.7955 223.62 99.6897 214.853 107.194 209.302C118.002 201.302 132.968 195.615 137.571 180.812C140.94 171.995 119.958 160.53 125.213 144.72C128.463 134.107 139.688 128.768 140.382 120.417C141.117 111.572 142.03 104.529 142.496 100.686Z" stroke="#606060" stroke-opacity="0.3" stroke-width="1.19883"/>
<path d="M150.747 111.512C149.131 93.314 167.635 98.2263 171.573 108.479C179.442 128.683 188.137 132.627 201.476 136.064C207.085 139.198 209.143 126.412 218.365 124.478C227.587 122.543 231.663 134.448 237.003 129.104C245.439 121.007 253.067 118.741 258.927 120.194C264.474 120.936 268.688 125.321 270.435 131.315C272.045 136.981 271.44 144.051 267.624 150.796C257.905 160.594 260.187 179.268 256.203 186.782C250.714 192.765 257.534 198.642 255.321 209.799C253.108 220.956 243.28 220.116 245.296 227.489C248.991 239.533 249.47 247.661 247.77 252.778C245.387 265.317 232.052 263.089 220.807 253.461C213.72 247.823 207.955 242.834 202.616 239.933C196.986 234.549 189.726 246.402 182.595 246.981C170.819 247.456 172.02 235.186 162.171 241.051C157.71 243.576 152.948 246.355 147.796 249.499C134.891 256.458 125.974 255.8 120.703 252.35C109.101 250.839 105.146 237.596 107.963 225.007C109.767 217.489 113.864 210.244 120.088 205.626C130.002 198.262 142.599 193.191 146.383 179.521C149.1 171.989 132.237 162.265 136.332 149.059C138.825 140.018 147.691 135.202 148.284 128.043C148.905 120.546 149.991 114.649 150.747 111.512Z" stroke="#606060" stroke-opacity="0.3" stroke-width="1.19883"/>
<path d="M158.767 122.337C158.031 108.589 172.486 112.455 175.636 120.635C183.062 139.601 191.267 142.031 203.17 143.58C207.647 145.796 209.553 135.891 216.864 134.177C224.174 132.463 227.615 141.187 231.917 137.177C238.827 131.105 244.999 129.757 249.631 131.373C253.912 132.176 257.148 135.864 258.335 140.76C259.419 145.409 258.643 151.111 255.108 156.419C244.941 164.81 249.381 184.733 246.505 191.957C242.414 197.013 247.19 201.74 245.023 210.175C242.856 218.609 234.815 217.767 235.826 222.822C238.032 231.32 237.988 236.89 236.355 240.291C234.294 249.445 223.751 247.43 214.654 240.052C208.689 235.674 203.59 231.981 198.786 230.324C194.185 226.5 188.312 235.683 182.481 236.452C173.097 237.183 173.541 228.218 165.712 232.784L165.497 232.901C161.791 234.922 157.915 237.034 153.804 239.336C142.845 244.501 135.679 242.711 131.956 238.881C123.286 237.393 120.434 227.093 122.738 217.319C124.279 211.356 127.601 205.632 132.578 201.948C141.656 195.22 151.954 190.763 154.938 178.224C157.019 171.977 144.184 163.994 147.14 153.395C148.89 145.925 155.444 141.632 155.94 135.667C156.451 129.518 157.715 124.767 158.767 122.337Z" stroke="#606060" stroke-opacity="0.3" stroke-width="1.19883"/>
<path d="M166.998 133.688C167.149 124.449 177.444 127.253 179.779 133.324C186.707 150.966 194.361 151.871 204.738 151.526C208.047 152.813 209.788 145.833 215.13 144.348C220.472 142.863 223.251 148.367 226.481 145.709C231.812 141.688 236.481 141.264 239.849 143.037C242.83 143.897 245.062 146.871 245.68 150.647C246.229 154.258 245.289 158.568 242.061 162.415C231.522 169.36 238.088 190.441 236.343 197.344C233.683 201.448 236.375 205.005 234.271 210.681C232.166 216.356 225.974 215.515 225.972 218.23C226.67 223.145 226.103 226.132 224.549 227.804C222.825 233.531 215.157 231.739 208.278 226.645C203.481 223.544 199.088 221.164 194.854 220.758C191.318 218.512 186.877 224.984 182.392 225.94C175.473 226.923 175.155 221.301 169.407 224.548C166.356 226.126 163.256 227.637 160.058 229.175C151.129 232.524 145.769 229.61 143.624 225.418C137.955 223.959 136.229 216.648 138.002 209.732C139.267 205.35 141.789 201.174 145.48 198.44C153.654 192.377 161.573 188.556 163.733 177.204C165.163 172.269 156.456 166.063 158.25 158.117C159.242 152.253 163.432 148.502 163.827 143.756C164.224 138.984 165.659 135.399 166.998 133.688Z" stroke="#606060" stroke-opacity="0.3" stroke-width="1.19883"/>
<path d="M175.35 144.528C176.385 139.767 182.551 141.517 184.08 145.497C190.521 161.855 197.635 161.242 206.506 159.009C208.658 159.373 210.237 155.294 213.626 154.034C217.016 152.774 219.14 155.08 221.306 153.764C225.073 151.78 228.252 152.276 230.367 154.208C232.057 155.126 233.294 157.396 233.346 160.062C233.363 162.647 232.258 165.577 229.331 167.975C218.408 173.493 227.1 195.772 226.477 202.367C225.238 205.532 225.861 207.93 223.816 210.865C221.771 213.801 217.411 212.96 216.4 213.348C215.599 214.7 214.511 215.12 213.034 215.07C211.643 217.393 206.826 215.819 202.146 212.991C198.505 211.159 194.808 210.082 191.138 210.923C188.657 210.244 185.635 214.027 182.484 215.171C178.009 216.407 176.933 214.108 173.248 216.046C170.909 217.151 168.647 218.027 166.435 218.764C159.515 220.309 155.945 216.268 155.368 211.706C152.679 210.275 152.07 205.927 153.317 201.847C154.31 199.033 156.038 196.391 158.455 194.598C165.739 189.187 171.3 185.991 172.644 175.799C173.426 172.162 168.818 167.715 169.457 162.4C169.696 158.124 171.539 154.905 171.834 151.366C172.117 147.955 173.723 145.527 175.35 144.528Z" stroke="#606060" stroke-opacity="0.3" stroke-width="1.19883"/>
</svg>
