<svg width="297" height="304" viewBox="0 0 297 304" fill="none" xmlns="http://www.w3.org/2000/svg">
<path d="M116.874 19.0488C109.004 -1.3986 70.0666 -11.4959 76.4921 29.2166C77.5456 35.8921 77.6516 47.3867 76.4921 61.378C75.4298 74.1948 54.6358 81.2078 48.2527 97.7685C38.2422 123.741 75.6709 141.843 69.7146 155.496C61.9134 173.378 38.0266 181.137 24.8141 190.92C12.3759 200.13 4.45319 214.908 1.41116 230.101C-3.92571 256.755 5.75939 284.688 32.4387 286.078C45.7942 286.774 63.4084 280.818 85.5286 264.72C95.4186 257.523 104.14 251.592 111.89 246.796C131.839 234.451 126.476 263.65 150.197 264.72C163.713 265.33 177.83 240.122 188.516 253.568C196.115 263.129 204.835 274.73 217.288 286.656C239.157 307.601 266.5 310.685 270.367 280.792C272.193 266.681 268.787 245.222 257.105 214.824C249.629 195.371 268.225 196.057 270.367 171.129C272.51 146.201 254.99 134.705 267.672 124.388L267.926 124.181C277.593 116.318 287.903 107.932 293.534 91.8244C298.384 77.9493 297.921 64.207 293.534 53.6474C288.839 42.3463 279.651 34.6906 267.672 34.419C255.654 34.1465 240.827 41.3081 224.912 59.6804C214.42 71.7936 207.314 43.6081 188.516 46.4893C169.718 49.3706 167.106 76.566 155.845 68.6783C136.283 54.9766 126.092 42.9963 116.874 19.0488Z" stroke="white" stroke-width="1.19883"/>
<path d="M154.844 130.585C153.646 127.446 148.064 128.269 147.781 131.671C147.46 135.545 149.421 140.592 149.194 144.475C148.756 151.971 146.104 154.105 140.823 158.057C138.93 159.47 137.724 161.739 137.261 164.071C136.449 168.163 137.923 172.451 141.983 172.665C144.016 172.772 146.696 171.857 150.063 169.386C151.568 168.281 152.895 167.371 154.075 166.634C159.21 163.172 163.988 165.885 165.736 167.674C166.892 169.142 168.22 170.923 170.115 172.754C173.443 175.969 178.483 175.548 178.193 171.853C177.782 166.634 168.859 147.153 178.193 143.756C182.528 142.178 182.386 138.604 181.718 136.983C181.004 135.248 179.605 134.073 177.782 134.031C175.953 133.989 172.923 136.983 171.275 137.909C165.19 141.328 159.76 143.095 154.844 130.585Z" stroke="white" stroke-width="1.19883"/>
<path d="M83.0024 38.1239C77.2998 1.0614 112.882 10.3003 120.098 29.0453C128.932 51.9621 138.698 62.7025 157.05 74.8601C167.371 81.9947 169.855 57.1634 187.067 54.4644C204.279 51.7655 210.855 77.3427 220.485 66.3237C235.131 49.612 248.749 43.2024 259.749 43.6068C270.679 43.927 279.057 51.0095 283.291 61.4082C287.244 71.1322 287.57 83.7514 282.96 96.4464C276.943 111.536 268.254 120.929 259.429 128.609C247.902 138.162 263.735 148.714 261.637 171.409C259.538 194.104 242.429 193.417 249.079 210.97C259.536 238.462 262.514 257.825 260.748 270.531C257.149 297.647 232.123 294.74 212.037 275.641C200.52 264.748 192.36 254.211 185.213 245.668C175.382 233.501 162.417 256.518 149.982 256.063C128.246 255.201 132.988 228.711 114.715 239.99C107.54 244.401 99.4983 249.815 90.4072 256.359C69.9112 270.985 53.7504 276.017 41.6725 275.015C17.4186 273.645 8.64435 248.128 13.5544 223.784C16.3765 209.867 23.6557 196.339 35.0589 187.896C47.561 178.639 69.5363 171.387 76.6742 154.441C82.104 141.844 48.0091 125.173 57.0791 101.341C62.8486 86.0728 81.7313 79.491 82.7124 67.6553C83.7803 54.7723 83.8172 44.219 83.0024 38.1239Z" stroke="white" stroke-width="1.19883"/>
<path d="M89.8049 47.4065C84.8335 14.1155 117.009 22.4657 123.559 39.4466C131.997 61.2551 141.325 70.7208 158.44 81.295C167.806 87.6532 170.157 65.2675 185.759 62.76C201.36 60.2524 207.396 83.1374 216.15 73.2489C229.506 58.2525 241.895 52.6156 251.861 53.1503C261.725 53.518 269.282 60.0038 273.047 69.4657C276.561 78.322 276.749 89.7766 272.386 101.25C266.04 115.131 259.117 125.49 251.22 132.9C240.867 141.658 254.989 151.231 252.938 171.619C250.886 192.006 235.287 191.32 241.103 206.917C250.319 231.412 252.865 248.616 251.161 259.876C247.837 284.127 225.162 281.406 206.89 264.217C196.325 254.392 188.738 244.952 182.052 237.456C173.092 226.608 161.297 247.358 149.961 247.059C130.242 246.407 134.356 222.714 117.785 232.89C111.197 236.901 103.846 241.781 95.5669 247.649C76.7251 260.757 62.0413 264.849 51.2586 263.544C29.4658 262.199 21.6151 239.181 26.0913 217.227C28.6893 204.633 35.3142 192.399 45.6659 184.751C57.4394 176.05 77.4711 169.33 83.9353 153.377C88.8307 141.878 58.1194 126.692 66.2356 105.081C71.383 91.1546 88.3268 85.026 89.2253 74.2105C90.2 62.4783 90.3798 52.9011 89.8049 47.4065Z" stroke="white" stroke-width="1.19883"/>
<path d="M96.3133 56.3143C92.0656 26.6733 120.883 34.1651 126.778 49.4436C134.833 70.221 143.737 78.4468 159.643 87.4769C168.069 93.082 170.29 73.0605 184.305 70.7353C198.319 68.4101 203.826 88.6867 211.716 79.8925C223.803 66.5568 234.982 61.6716 243.929 62.3383C252.743 62.7546 259.49 68.6672 262.793 77.2265C265.873 85.2473 265.924 95.5787 261.8 105.872C255.116 118.594 249.948 129.953 242.967 137.119C233.771 145.114 246.205 153.743 244.197 171.897C242.189 190.051 228.077 189.364 233.067 203.062C241.056 224.65 243.174 239.759 241.529 249.613C238.474 271.088 218.117 268.543 201.63 253.201C192.001 244.41 184.974 236.033 178.74 229.555C170.636 219.986 159.993 238.545 149.739 238.4C132.006 237.957 135.499 216.973 120.604 226.083C114.593 229.708 107.92 234.072 100.441 239.286C83.224 250.923 69.9946 254.091 60.4905 252.48C41.1252 251.155 34.1862 230.552 38.2353 210.909C40.6132 199.592 46.5942 188.607 55.9104 181.726C66.9737 173.551 85.0927 167.338 90.8932 152.322C95.2616 141.879 67.8868 128.124 75.0616 108.654C79.5948 96.0198 94.6256 90.3225 95.4431 80.4882C96.326 69.8643 96.6491 61.2284 96.3133 56.3143Z" stroke="white" stroke-width="1.19883"/>
<path d="M103.113 65.2218C99.5961 39.232 125.005 45.8652 130.234 59.4409C137.892 79.1889 146.356 86.1742 161.024 93.6592C168.494 98.5108 170.583 80.8541 182.986 78.7112C195.389 76.5683 200.355 94.2354 207.369 86.5359C218.165 74.8614 228.115 70.7285 236.027 71.5275C243.775 71.9925 249.7 77.3319 252.535 84.9887C255.175 92.1737 255.088 101.382 251.212 110.494C244.2 122.058 240.797 134.421 234.745 141.345C226.722 148.575 237.446 156.26 235.485 172.181C233.524 188.101 220.923 187.413 225.078 199.21C231.827 217.89 233.513 230.902 231.93 239.351C229.15 258.048 211.146 255.68 196.474 242.184C187.797 234.427 181.344 227.114 175.571 221.655C168.338 213.365 158.867 229.732 149.713 229.742C133.997 229.507 136.862 211.234 123.671 219.277C118.246 222.518 112.265 226.365 105.598 230.925C90.0366 241.09 78.285 243.333 70.0765 241.415C53.1731 240.11 47.158 221.923 50.7729 204.591C52.9266 194.551 58.253 184.816 66.517 178.701C76.8507 171.052 93.0249 165.346 98.1513 151.265C101.985 141.879 77.9953 129.556 84.216 112.226C88.127 100.885 101.218 95.6182 101.953 86.7651C102.743 77.2497 103.208 69.5553 103.113 65.2218Z" stroke="white" stroke-width="1.19883"/>
<path d="M109.909 74.5485C107.123 52.268 129.123 58.0277 133.686 69.8703C140.945 88.5441 148.968 94.2734 162.398 100.197C168.912 104.284 170.868 89.0317 181.658 87.0758C192.449 85.12 196.875 100.138 203.011 93.5506C212.516 83.5634 221.236 80.192 228.113 81.1213C234.796 81.6341 239.898 86.3882 242.266 93.1252C244.465 99.4585 244.242 107.523 240.613 115.435C233.276 125.813 231.636 139.152 226.512 145.816C219.663 152.267 228.676 158.991 226.763 172.642C224.85 186.292 213.761 185.605 217.081 195.475C222.59 211.207 223.844 222.092 222.324 229.117C219.818 244.994 204.169 242.808 191.311 231.19C183.588 224.484 177.708 218.25 172.399 213.822C166.037 206.831 157.737 220.969 149.684 221.134C135.985 221.108 138.223 205.586 126.735 212.545C121.899 215.393 116.608 218.714 110.754 222.61C96.8496 231.281 86.5762 232.595 79.6632 230.374C65.2219 229.092 60.1307 213.362 63.3112 198.379C65.2405 189.638 69.9121 181.176 77.1237 175.842C86.7263 168.735 100.955 163.549 105.407 150.435C108.706 142.126 88.1018 131.262 93.3684 116.112C96.6572 106.089 107.809 101.265 108.461 93.4131C109.157 85.0274 109.765 78.2917 109.909 74.5485Z" stroke="white" stroke-width="1.19883"/>
<path d="M116.411 83.456C114.351 64.8285 132.987 69.7293 136.894 79.8686C143.769 97.5147 151.368 102.002 163.586 106.379C169.158 109.713 170.985 96.8261 180.186 95.0525C189.387 93.2789 193.282 105.686 198.554 100.194C206.787 91.8687 214.295 89.2502 220.152 90.3122C225.782 90.8739 230.072 95.0547 231.977 100.889C233.742 106.386 233.381 113.327 229.992 120.058C222.315 129.278 222.434 143.625 218.228 150.047C212.538 155.734 219.859 161.513 217.99 172.929C216.121 184.345 206.521 183.656 209.013 191.625C213.293 204.446 214.118 213.234 212.657 218.852C210.421 231.95 197.093 229.94 186.024 220.17C179.238 214.498 173.919 209.328 169.062 205.92C163.557 200.209 156.412 212.154 149.442 212.475C137.734 212.657 139.349 199.848 129.541 205.74C125.281 208.202 120.671 211.007 115.618 214.248C103.341 221.447 94.5244 221.834 88.8925 219.305C76.8832 218.043 72.7053 204.73 75.4581 192.059C77.167 184.596 81.1935 177.383 87.3677 172.816C96.2593 166.235 108.572 161.556 112.359 149.377C115.13 142.124 97.8686 132.691 102.192 119.684C104.865 110.952 114.101 106.56 114.671 99.6892C115.276 92.4123 116.028 86.6183 116.411 83.456Z" stroke="white" stroke-width="1.19883"/>
<path d="M123.199 92.3629C121.869 77.3913 137.093 81.4327 140.333 89.8678C146.807 106.49 153.96 109.735 164.934 112.562C169.55 115.141 171.242 104.622 178.829 103.03C186.416 101.439 189.77 111.233 194.163 106.837C201.104 100.175 207.379 98.3103 212.2 99.5056C216.764 100.117 220.231 103.724 221.668 108.655C222.993 113.317 222.495 119.133 219.355 124.682C211.359 132.744 213.237 148.107 209.959 154.289C205.444 159.212 211.054 164.046 209.234 173.225C207.413 182.404 199.328 181.713 200.986 187.779C204.026 197.688 204.42 204.375 203.021 208.584C201.061 218.901 190.09 217.067 180.839 209.146C175.008 204.508 170.265 200.404 165.872 198.017C161.24 193.587 155.268 203.339 149.401 203.815C139.713 204.206 140.701 194.112 132.598 198.937C128.927 201.014 125.01 203.301 120.771 205.887C110.154 211.612 102.818 211.071 98.4817 208.232C88.9359 206.99 85.6823 196.094 88 185.737C89.484 179.552 92.8547 173.591 97.9752 169.792C106.132 163.734 116.496 159.561 119.608 148.315C121.844 142.119 107.971 134.118 111.34 123.254C113.391 115.815 120.685 111.853 121.173 105.964C121.684 99.7957 122.577 94.9438 123.199 92.3629Z" stroke="white" stroke-width="1.19883"/>
<path d="M129.797 101.269C129.191 89.9582 141.084 93.1393 143.675 99.8689C149.785 115.472 156.535 117.471 166.328 118.746C170.012 120.569 171.58 112.42 177.594 111.01C183.609 109.6 186.44 116.777 189.978 113.478C195.664 108.482 200.742 107.373 204.552 108.703C208.074 109.364 210.737 112.398 211.713 116.426C212.605 120.25 211.967 124.942 209.058 129.309C200.694 136.212 204.347 152.603 201.98 158.547C198.615 162.706 202.544 166.595 200.761 173.534C198.978 180.474 192.363 179.781 193.195 183.939C195.009 190.931 194.973 195.513 193.63 198.312C191.934 205.842 183.261 204.184 175.776 198.115C170.869 194.513 166.674 191.475 162.721 190.111C158.936 186.966 154.104 194.521 149.307 195.153C141.587 195.755 141.952 188.379 135.511 192.135L135.334 192.232C132.285 193.894 129.097 195.632 125.714 197.526C116.698 201.775 110.802 200.302 107.739 197.151C100.607 195.927 98.2604 187.453 100.156 179.412C101.423 174.506 104.157 169.797 108.251 166.766C115.72 161.231 124.192 157.564 126.647 147.248C128.359 142.108 117.8 135.541 120.232 126.821C121.671 120.676 127.063 117.143 127.471 112.236C127.891 107.177 128.932 103.268 129.797 101.269Z" stroke="white" stroke-width="1.19883"/>
<path d="M136.569 110.607C136.693 103.007 145.163 105.314 147.084 110.308C152.784 124.822 159.081 125.567 167.618 125.283C170.341 126.342 171.773 120.599 176.168 119.378C180.563 118.156 182.849 122.685 185.506 120.498C189.893 117.189 193.734 116.841 196.505 118.299C198.957 119.006 200.794 121.454 201.302 124.56C201.754 127.531 200.98 131.077 198.324 134.242C189.653 139.956 195.056 157.299 193.62 162.978C191.432 166.355 193.647 169.281 191.915 173.951C190.184 178.62 185.09 177.928 185.088 180.161C185.662 184.205 185.196 186.663 183.917 188.038C182.499 192.75 176.19 191.275 170.531 187.084C166.584 184.534 162.97 182.575 159.487 182.241C156.578 180.393 152.924 185.718 149.234 186.504C143.542 187.313 143.28 182.688 138.551 185.36C136.041 186.658 133.49 187.901 130.86 189.167C123.514 191.922 119.104 189.524 117.339 186.075C112.675 184.875 111.255 178.86 112.713 173.17C113.754 169.565 115.829 166.129 118.866 163.88C125.591 158.892 132.106 155.748 133.883 146.409C135.059 142.349 127.896 137.243 129.372 130.706C130.188 125.882 133.635 122.795 133.96 118.891C134.287 114.964 135.467 112.016 136.569 110.607Z" stroke="white" stroke-width="1.19883"/>
<path d="M143.441 119.526C144.292 115.609 149.365 117.049 150.623 120.323C155.922 133.781 161.775 133.277 169.073 131.439C170.843 131.739 172.142 128.383 174.931 127.346C177.719 126.31 179.467 128.207 181.249 127.125C184.349 125.492 186.964 125.9 188.703 127.49C190.094 128.245 191.112 130.112 191.154 132.306C191.169 134.432 190.259 136.843 187.851 138.816C178.865 143.356 186.016 161.685 185.504 167.111C184.484 169.714 184.997 171.687 183.314 174.103C181.632 176.518 178.045 175.826 177.213 176.145C176.554 177.257 175.659 177.603 174.443 177.562C173.299 179.473 169.336 178.178 165.486 175.851C162.49 174.344 159.449 173.458 156.429 174.15C154.388 173.591 151.902 176.704 149.309 177.645C145.628 178.661 144.743 176.77 141.711 178.365C139.787 179.274 137.926 179.995 136.106 180.601C130.413 181.872 127.476 178.547 127 174.794C124.788 173.616 124.288 170.04 125.313 166.683C126.13 164.368 127.552 162.194 129.541 160.72C135.533 156.267 140.109 153.638 141.214 145.253C141.858 142.261 138.066 138.602 138.592 134.229C138.789 130.711 140.305 128.063 140.547 125.151C140.781 122.346 142.102 120.348 143.441 119.526Z" stroke="white" stroke-width="1.19883"/>
</svg>
