<svg width="48" height="48" viewBox="0 0 48 48" fill="none" xmlns="http://www.w3.org/2000/svg">
<path fill-rule="evenodd" clip-rule="evenodd" d="M20.64 20.3059C20.4592 20.4965 20.2427 20.6496 20.0027 20.7564C19.7627 20.8633 19.504 20.9219 19.2414 20.9287C18.9788 20.9356 18.7174 20.8907 18.4721 20.7965C18.2269 20.7023 18.0026 20.5607 17.812 20.3799L6.12405 9.29387C5.73922 8.9284 5.51533 8.42503 5.50164 7.89449C5.48795 7.36395 5.68558 6.8497 6.05105 6.46487C6.41652 6.08004 6.91989 5.85615 7.45043 5.84246C7.98097 5.82877 8.49522 6.0264 8.88005 6.39187L20.566 17.4779C20.7566 17.6587 20.9097 17.8753 21.0166 18.1152C21.1235 18.3552 21.182 18.6139 21.1889 18.8765C21.1958 19.1392 21.1508 19.4006 21.0567 19.6458C20.9625 19.8911 20.8209 20.1153 20.64 20.3059Z" fill="#4A4A4A"/>
<path fill-rule="evenodd" clip-rule="evenodd" d="M20.5941 20.3522C20.7822 20.1663 20.9316 19.9448 21.0336 19.7007C21.1355 19.4567 21.1881 19.1948 21.1881 18.9302V11.8442C21.1881 11.3138 20.9774 10.8051 20.6023 10.43C20.2273 10.055 19.7185 9.84424 19.1881 9.84424C18.6577 9.84424 18.149 10.055 17.7739 10.43C17.3988 10.8051 17.1881 11.3138 17.1881 11.8442V16.9082L11.5241 16.8442C11.2615 16.8413 11.0008 16.8902 10.7571 16.9881C10.5133 17.0859 10.2912 17.2308 10.1035 17.4145C9.9157 17.5981 9.76595 17.817 9.66278 18.0585C9.5596 18.3001 9.505 18.5596 9.50212 18.8222C9.49923 19.0849 9.5481 19.3455 9.64594 19.5893C9.74378 19.833 9.88867 20.0551 10.0723 20.2429C10.256 20.4307 10.4749 20.5804 10.7164 20.6836C10.958 20.7868 11.2175 20.8413 11.4801 20.8442L19.1661 20.9302C19.4307 20.9328 19.6931 20.8829 19.9382 20.7833C20.1834 20.6838 20.4063 20.5386 20.5941 20.3522ZM20.6401 28.2682C20.4593 28.0776 20.2427 27.9245 20.0027 27.8177C19.7628 27.7108 19.5041 27.6523 19.2414 27.6454C18.9788 27.6385 18.7174 27.6834 18.4722 27.7776C18.2269 27.8718 18.0026 28.0134 17.8121 28.1942L6.12412 39.2802C5.73929 39.6454 5.5153 40.1486 5.50142 40.6789C5.48754 41.2093 5.68491 41.7234 6.05012 42.1082C6.41532 42.4931 6.91844 42.7171 7.44879 42.7309C7.97914 42.7448 8.49329 42.5474 8.87812 42.1822L20.5641 31.0962C20.7547 30.9154 20.9078 30.6989 21.0147 30.4589C21.1216 30.2189 21.1801 29.9602 21.187 29.6976C21.1938 29.4349 21.1489 29.1736 21.0547 28.9283C20.9606 28.6831 20.821 28.4588 20.6401 28.2682Z" fill="#4A4A4A"/>
<path fill-rule="evenodd" clip-rule="evenodd" d="M20.5941 28.2222C20.7822 28.4081 20.9316 28.6296 21.0335 28.8736C21.1355 29.1177 21.188 29.3796 21.1881 29.6442V36.7302C21.1881 37.2606 20.9774 37.7693 20.6023 38.1444C20.2272 38.5194 19.7185 38.7302 19.1881 38.7302C18.6576 38.7302 18.1489 38.5194 17.7739 38.1444C17.3988 37.7693 17.1881 37.2606 17.1881 36.7302V31.6682L11.5241 31.7302C10.9936 31.736 10.4826 31.5309 10.1034 31.1599C9.72422 30.789 9.50791 30.2826 9.50207 29.7522C9.49624 29.2217 9.70136 28.7107 10.0723 28.3315C10.4433 27.9523 10.9496 27.736 11.4801 27.7302L19.1661 27.6462C19.4304 27.6431 19.6926 27.6924 19.9377 27.7912C20.1828 27.8901 20.4059 28.0366 20.5941 28.2222ZM27.5941 20.3062C27.9592 20.6905 28.4619 20.9141 28.9918 20.928C29.5217 20.9419 30.0354 20.7448 30.4201 20.3802L42.1081 9.29416C42.4929 8.92895 42.7169 8.42584 42.7308 7.89548C42.7447 7.36513 42.5473 6.85099 42.1821 6.46616C41.8169 6.08133 41.3138 5.85734 40.7834 5.84346C40.253 5.82958 39.7389 6.02695 39.3541 6.39216L27.6681 17.4782C27.4775 17.659 27.3244 17.8755 27.2175 18.1155C27.1106 18.3555 27.0521 18.6142 27.0452 18.8768C27.0383 19.1394 27.0833 19.4008 27.1775 19.6461C27.2716 19.8913 27.4132 20.1156 27.5941 20.3062Z" fill="#4A4A4A"/>
<path fill-rule="evenodd" clip-rule="evenodd" d="M27.6399 20.3522C27.4515 20.1664 27.3017 19.9451 27.1994 19.701C27.0971 19.4569 27.0443 19.1949 27.0439 18.9302V11.8442C27.0439 11.3138 27.2547 10.8051 27.6297 10.43C28.0048 10.055 28.5135 9.84424 29.0439 9.84424C29.5744 9.84424 30.0831 10.055 30.4582 10.43C30.8332 10.8051 31.0439 11.3138 31.0439 11.8442V16.9082L36.7099 16.8442C37.2404 16.8384 37.7514 17.0435 38.1306 17.4145C38.5098 17.7854 38.7261 18.2918 38.7319 18.8222C38.7378 19.3527 38.5327 19.8637 38.1617 20.2429C37.7908 20.6221 37.2844 20.8384 36.7539 20.8442L29.0659 20.9302C28.8014 20.9328 28.539 20.8829 28.2938 20.7833C28.0487 20.6838 27.8258 20.5366 27.6379 20.3502L27.6399 20.3522ZM27.5939 28.2682C27.959 27.8839 28.4617 27.6603 28.9916 27.6464C29.5215 27.6325 30.0353 27.8296 30.4199 28.1942L42.1079 39.2802C42.4928 39.6454 42.7168 40.1486 42.7306 40.6789C42.7445 41.2093 42.5471 41.7234 42.1819 42.1082C41.8167 42.4931 41.3136 42.7171 40.7833 42.7309C40.2529 42.7448 39.7388 42.5474 39.3539 42.1822L27.6679 31.0962C27.4774 30.9154 27.3242 30.6989 27.2174 30.4589C27.1105 30.2189 27.052 29.9602 27.0451 29.6976C27.0382 29.4349 27.0832 29.1736 27.1773 28.9283C27.2715 28.6831 27.4131 28.4588 27.5939 28.2682Z" fill="#4A4A4A"/>
<path fill-rule="evenodd" clip-rule="evenodd" d="M27.6399 28.2221C27.4515 28.4079 27.3017 28.6293 27.1994 28.8734C27.0971 29.1175 27.0443 29.3795 27.0439 29.6441V36.7301C27.0439 37.2606 27.2547 37.7693 27.6297 38.1443C28.0048 38.5194 28.5135 38.7301 29.0439 38.7301C29.5744 38.7301 30.0831 38.5194 30.4582 38.1443C30.8332 37.7693 31.0439 37.2606 31.0439 36.7301V31.6681L36.7099 31.7301C37.2404 31.736 37.7514 31.5309 38.1306 31.1599C38.5098 30.789 38.7261 30.2826 38.7319 29.7521C38.7378 29.2217 38.5327 28.7107 38.1617 28.3315C37.7908 27.9523 37.2844 27.736 36.7539 27.7301L29.0659 27.6461C28.8017 27.643 28.5394 27.6923 28.2943 27.7912C28.0492 27.8901 27.8281 28.0365 27.6399 28.2221Z" fill="#4A4A4A"/>
</svg>
