<svg width="33" height="32" viewBox="0 0 33 32" fill="none" xmlns="http://www.w3.org/2000/svg">
<path d="M26.8198 24.4398C28.768 22.0584 29.8326 19.0766 29.8332 15.9998C29.8332 8.63984 23.8598 2.6665 16.4998 2.6665C9.13984 2.6665 3.1665 8.63984 3.1665 15.9998C3.1665 23.3598 9.13984 29.3332 16.4998 29.3332C18.2636 29.3343 20.01 28.9848 21.6374 28.305C23.2649 27.6252 24.741 26.6286 25.9798 25.3732C26.0198 25.3332 26.0465 25.2932 26.0732 25.2665C26.3398 24.9998 26.5932 24.7198 26.8198 24.4398ZM16.4998 26.6665C10.6198 26.6665 5.83317 21.8798 5.83317 15.9998C5.83317 10.1198 10.6198 5.33317 16.4998 5.33317C22.3798 5.33317 27.1665 10.1198 27.1665 15.9998C27.1665 18.4665 26.3265 20.7198 24.9132 22.5332L23.0065 20.6265C23.9265 19.3198 24.4732 17.7332 24.4732 16.0132C24.4732 11.5998 20.8865 8.01317 16.4732 8.01317C12.0598 8.01317 8.47317 11.5998 8.47317 16.0132C8.47317 20.4265 12.0598 24.0132 16.4732 24.0132C18.2065 24.0132 19.8198 23.4532 21.1265 22.5065L23.0198 24.3998C21.1669 25.8738 18.8675 26.6731 16.4998 26.6665ZM19.0598 16.6798C19.2865 15.7998 19.0865 14.8398 18.4065 14.1465L18.3798 14.1198C17.3532 13.0932 15.7132 13.0798 14.6732 14.0665C14.6598 14.0798 14.6332 14.0932 14.6065 14.1198C13.5665 15.1598 13.5665 16.8532 14.6065 17.8932L14.6332 17.9198C15.3265 18.5998 16.2998 18.8132 17.1798 18.5732L19.1932 20.5865C18.3932 21.0665 17.4732 21.3598 16.4732 21.3598C13.5265 21.3598 11.1398 18.9732 11.1398 16.0265C11.1398 13.0798 13.5265 10.6932 16.4732 10.6932C19.4198 10.6932 21.8065 13.0798 21.8065 16.0265C21.8065 16.9998 21.5265 17.9065 21.0598 18.6932L19.0598 16.6798Z" fill="#636363"/>
</svg>
