<svg width="40" height="41" viewBox="0 0 40 41" fill="none" xmlns="http://www.w3.org/2000/svg">
<path d="M19.9996 15.6899L29.9996 25.6899M29.9996 15.6899L19.9996 25.6899M16.6662 9.02325C15.838 9.0233 15.0395 9.33166 14.4262 9.88825L3.87958 19.4549C3.70745 19.6111 3.56989 19.8017 3.47576 20.0142C3.38163 20.2267 3.33301 20.4566 3.33301 20.6891C3.33301 20.9215 3.38163 21.1514 3.47576 21.364C3.56989 21.5765 3.70745 21.767 3.87958 21.9233L14.4262 31.4916C15.0395 32.0482 15.838 32.3565 16.6662 32.3566H33.3329C34.217 32.3566 35.0648 32.0054 35.6899 31.3803C36.3151 30.7552 36.6662 29.9073 36.6662 29.0233V12.3566C36.6662 11.4725 36.3151 10.6247 35.6899 9.99956C35.0648 9.37444 34.217 9.02325 33.3329 9.02325H16.6662Z" stroke="#636363" stroke-width="2" stroke-linecap="round" stroke-linejoin="round"/>
</svg>
