<svg width="33" height="32" viewBox="0 0 33 32" fill="none" xmlns="http://www.w3.org/2000/svg">
<path d="M14.5 12.3335C16.7091 12.3335 18.5 10.5426 18.5 8.3335C18.5 6.12436 16.7091 4.3335 14.5 4.3335C12.2909 4.3335 10.5 6.12436 10.5 8.3335C10.5 10.5426 12.2909 12.3335 14.5 12.3335Z" fill="#262626" stroke="#636363" stroke-width="1.5"/>
<path d="M23.8332 20.3333C23.8332 23.2785 23.8332 25.6667 14.4998 25.6667C5.1665 25.6667 5.1665 23.2785 5.1665 20.3333C5.1665 17.3881 9.3455 15 14.4998 15C19.6542 15 23.8332 17.3881 23.8332 20.3333Z" fill="#262626" stroke="#636363" stroke-width="1.5"/>
<path d="M28.5 23.5C28.5 27.0894 28.5 30 18.5 30C8.5 30 8.5 27.0894 8.5 23.5C8.5 19.9106 12.9775 17 18.5 17C24.0225 17 28.5 19.9106 28.5 23.5Z" fill="#262626" stroke="#262626" stroke-width="1.5"/>
<path d="M27.5 23.5C27.5 26.5372 27.5 29 18.5 29C9.5 29 9.5 26.5372 9.5 23.5C9.5 20.4628 13.5297 18 18.5 18C23.4703 18 27.5 20.4628 27.5 23.5Z" fill="#262626" stroke="#636363" stroke-width="1.5"/>
<path d="M18.75 16.5C21.6495 16.5 24 14.1495 24 11.25C24 8.3505 21.6495 6 18.75 6C15.8505 6 13.5 8.3505 13.5 11.25C13.5 14.1495 15.8505 16.5 18.75 16.5Z" fill="#262626" stroke="#262626" stroke-width="1.5"/>
<path d="M18.5 15.3335C20.7091 15.3335 22.5 13.5426 22.5 11.3335C22.5 9.12436 20.7091 7.3335 18.5 7.3335C16.2909 7.3335 14.5 9.12436 14.5 11.3335C14.5 13.5426 16.2909 15.3335 18.5 15.3335Z" fill="#262626" stroke="#636363" stroke-width="1.5"/>
</svg>
