<svg width="27" height="28" viewBox="0 0 27 28" fill="none" xmlns="http://www.w3.org/2000/svg">
<path d="M11.9333 27.3334C11.3333 27.3334 10.8169 27.1334 10.384 26.7334C9.95109 26.3334 9.68975 25.8445 9.59997 25.2668L9.29997 23.0667C9.01109 22.9556 8.73908 22.8223 8.48397 22.6667C8.22886 22.5112 7.97864 22.3445 7.73331 22.1667L5.66664 23.0334C5.11108 23.2779 4.55553 23.3001 3.99997 23.1001C3.44442 22.9001 3.01109 22.5445 2.69997 22.0334L1.13331 19.3001C0.822196 18.789 0.733307 18.2445 0.866641 17.6667C0.999974 17.089 1.29997 16.6112 1.76664 16.2334L3.53331 14.9001C3.51109 14.7445 3.49997 14.5943 3.49997 14.4494V13.5494C3.49997 13.4054 3.51109 13.2556 3.53331 13.1001L1.76664 11.7667C1.29997 11.389 0.999974 10.9112 0.866641 10.3334C0.733307 9.75564 0.822196 9.21119 1.13331 8.70008L2.69997 5.96675C3.01109 5.45564 3.44442 5.10008 3.99997 4.90008C4.55553 4.70008 5.11108 4.7223 5.66664 4.96675L7.73331 5.83342C7.97775 5.65564 8.23331 5.48897 8.49997 5.33342C8.76664 5.17786 9.03331 5.04453 9.29997 4.93341L9.59997 2.73341C9.68886 2.15564 9.9502 1.66675 10.384 1.26675C10.8178 0.866748 11.3342 0.666748 11.9333 0.666748H15.0666C15.6666 0.666748 16.1835 0.866748 16.6173 1.26675C17.0511 1.66675 17.312 2.15564 17.4 2.73341L17.7 4.93341C17.9889 5.04453 18.2613 5.17786 18.5173 5.33342C18.7733 5.48897 19.0231 5.65564 19.2666 5.83342L21.3333 4.96675C21.8889 4.7223 22.4444 4.70008 23 4.90008C23.5555 5.10008 23.9889 5.45564 24.3 5.96675L25.8666 8.70008C26.1777 9.21119 26.2666 9.75564 26.1333 10.3334C26 10.9112 25.7 11.389 25.2333 11.7667L23.4666 13.1001C23.4889 13.2556 23.5 13.4059 23.5 13.5507V14.4494C23.5 14.5943 23.4778 14.7445 23.4333 14.9001L25.2 16.2334C25.6666 16.6112 25.9666 17.089 26.1 17.6667C26.2333 18.2445 26.1444 18.789 25.8333 19.3001L24.2333 22.0334C23.9222 22.5445 23.4889 22.9001 22.9333 23.1001C22.3778 23.3001 21.8222 23.2779 21.2666 23.0334L19.2666 22.1667C19.0222 22.3445 18.7666 22.5112 18.5 22.6667C18.2333 22.8223 17.9666 22.9556 17.7 23.0667L17.4 25.2668C17.3111 25.8445 17.0502 26.3334 16.6173 26.7334C16.1844 27.1334 15.6675 27.3334 15.0666 27.3334H11.9333ZM12.1666 24.6667H14.8L15.2666 21.1334C15.9555 20.9556 16.5946 20.6947 17.184 20.3507C17.7733 20.0068 18.312 19.5899 18.8 19.1001L22.1 20.4667L23.4 18.2001L20.5333 16.0334C20.6444 15.7223 20.7222 15.3947 20.7666 15.0507C20.8111 14.7067 20.8333 14.3565 20.8333 14.0001C20.8333 13.6436 20.8111 13.2939 20.7666 12.9507C20.7222 12.6076 20.6444 12.2796 20.5333 11.9667L23.4 9.80008L22.1 7.53341L18.8 8.93341C18.3111 8.4223 17.7724 7.99475 17.184 7.65075C16.5955 7.30675 15.9564 7.04541 15.2666 6.86675L14.8333 3.33341H12.2L11.7333 6.86675C11.0444 7.04453 10.4058 7.30586 9.81731 7.65075C9.22886 7.99564 8.68975 8.41208 8.19997 8.90008L4.89997 7.53341L3.59997 9.80008L6.46664 11.9334C6.35553 12.2667 6.27775 12.6001 6.23331 12.9334C6.18886 13.2667 6.16664 13.6223 6.16664 14.0001C6.16664 14.3556 6.18886 14.7001 6.23331 15.0334C6.27775 15.3667 6.35553 15.7001 6.46664 16.0334L3.59997 18.2001L4.89997 20.4667L8.19997 19.0667C8.68886 19.5779 9.22797 20.0059 9.81731 20.3507C10.4066 20.6956 11.0453 20.9565 11.7333 21.1334L12.1666 24.6667ZM13.5666 18.6667C14.8555 18.6667 15.9555 18.2112 16.8666 17.3001C17.7778 16.389 18.2333 15.289 18.2333 14.0001C18.2333 12.7112 17.7778 11.6112 16.8666 10.7001C15.9555 9.78897 14.8555 9.33342 13.5666 9.33342C12.2555 9.33342 11.1502 9.78897 10.2506 10.7001C9.35108 11.6112 8.90086 12.7112 8.89997 14.0001C8.89909 15.289 9.34931 16.389 10.2506 17.3001C11.152 18.2112 12.2573 18.6667 13.5666 18.6667Z" fill="#636363"/>
</svg>
