<svg width="23" height="24" viewBox="0 0 23 24" fill="none" xmlns="http://www.w3.org/2000/svg">
<path d="M3.50016 21.3334H7.50016V14.6667C7.50016 14.289 7.62816 13.9725 7.88416 13.7174C8.14016 13.4623 8.45661 13.3343 8.8335 13.3334H14.1668C14.5446 13.3334 14.8615 13.4614 15.1175 13.7174C15.3735 13.9734 15.5011 14.2899 15.5002 14.6667V21.3334H19.5002V9.33342L11.5002 3.33341L3.50016 9.33342V21.3334ZM0.833496 21.3334V9.33342C0.833496 8.91119 0.928163 8.51119 1.1175 8.13342C1.30683 7.75564 1.56772 7.44453 1.90016 7.20008L9.90016 1.20008C10.3668 0.844526 10.9002 0.666748 11.5002 0.666748C12.1002 0.666748 12.6335 0.844526 13.1002 1.20008L21.1002 7.20008C21.4335 7.44453 21.6948 7.75564 21.8842 8.13342C22.0735 8.51119 22.1677 8.91119 22.1668 9.33342V21.3334C22.1668 22.0667 21.9055 22.6947 21.3828 23.2174C20.8602 23.7401 20.2326 24.001 19.5002 24.0001H14.1668C13.7891 24.0001 13.4726 23.8721 13.2175 23.6161C12.9624 23.3601 12.8344 23.0436 12.8335 22.6667V16.0001H10.1668V22.6667C10.1668 23.0445 10.0388 23.3614 9.78283 23.6174C9.52683 23.8734 9.21038 24.001 8.8335 24.0001H3.50016C2.76683 24.0001 2.13927 23.7392 1.6175 23.2174C1.09572 22.6956 0.834385 22.0676 0.833496 21.3334Z" fill="#636363"/>
</svg>
